<svg width="194" height="195" viewBox="0 0 194 195" fill="none" xmlns="http://www.w3.org/2000/svg">
<path d="M188.011 5.98935C173.558 -8.46365 136.48 4.09785 97.001 34.0951C57.5463 4.09785 20.4438 -8.4394 5.99076 5.98935C-8.46224 20.4423 4.09926 57.5206 34.1208 96.9996C4.09926 136.454 -8.43799 173.557 5.99076 188.01C20.4438 202.463 57.522 189.901 97.001 159.904C136.456 189.926 173.558 202.463 188.011 188.01C202.464 173.557 189.903 136.479 159.881 96.9996C189.903 57.5448 202.44 20.4423 188.011 5.98935ZM142.858 142.832C135.583 150.107 116.886 143.778 97.001 128.67C77.116 143.802 58.4435 150.107 51.1443 142.832C43.8693 135.557 50.1985 116.86 65.3063 96.9996C50.1743 77.1146 43.8693 58.4421 51.1443 51.1671C58.4193 43.8921 77.116 50.2213 97.001 65.3291C116.886 50.1971 135.559 43.8921 142.858 51.1671C150.133 58.4421 143.804 77.1388 128.696 96.9996C143.828 116.885 150.133 135.557 142.858 142.832Z" fill="#F0ECE6"/>
</svg>
