<svg width="189" height="189" viewBox="0 0 189 189" fill="none" xmlns="http://www.w3.org/2000/svg">
<path d="M-0.000488281 0H189C189 33.7601 161.618 61.1415 127.858 61.1415H61.141C27.3809 61.1415 -0.000488281 33.7601 -0.000488281 0Z" fill="#F0ECE6"/>
<path d="M189 189H-0.000488281C-0.000488281 155.24 27.3809 127.858 61.141 127.858H127.858C161.618 127.858 189 155.24 189 189Z" fill="#F0ECE6"/>
<path d="M94.4991 124.598C111.122 124.598 124.597 111.123 124.597 94.5001C124.597 77.8773 111.122 64.4019 94.4991 64.4019C77.8763 64.4019 64.4009 77.8773 64.4009 94.5001C64.4009 111.123 77.8763 124.598 94.4991 124.598Z" fill="#FF7E5D"/>
</svg>
